<svg xmlns="http://www.w3.org/2000/svg" width="186" height="160" viewBox="0 0 186 160" version="1.1">
	<path d="M 135.073 35.863 C 134.525 36.887, 128.645 59.437, 122.007 85.972 C 112.639 123.419, 110.196 134.531, 111.091 135.610 C 112.022 136.731, 117.243 137, 138.087 137 C 163.114 137, 163.964 136.935, 165.026 134.951 C 165.630 133.823, 165.983 131.686, 165.812 130.201 L 165.500 127.500 144.250 127.230 C 130.969 127.061, 123 126.586, 123 125.963 C 123 125.414, 127.964 105.124, 134.032 80.873 C 142.593 46.655, 144.805 36.470, 143.909 35.391 C 142.175 33.301, 136.276 33.616, 135.073 35.863 M 58.179 37.750 C 57.689 38.712, 51.936 61.004, 45.395 87.287 C 35.195 128.276, 33.716 135.209, 35.001 136.022 C 35.847 136.556, 48.145 136.976, 63.215 136.985 C 89.129 137, 89.963 136.939, 91.026 134.951 C 91.630 133.823, 91.983 131.686, 91.812 130.201 L 91.500 127.500 68.868 127.232 L 46.236 126.963 50.170 111.232 C 52.333 102.579, 54.548 93.813, 55.090 91.750 L 56.077 88 75.503 88 C 93.686 88, 94.996 87.876, 95.965 86.066 C 96.534 85.002, 97 82.977, 97 81.566 L 97 79 78.167 79 C 67.808 79, 59.092 78.759, 58.798 78.464 C 58.503 78.170, 60.162 70.632, 62.484 61.714 L 66.706 45.500 89.603 45.240 C 114.721 44.956, 115 44.885, 115 38.809 L 115 36 87.035 36 C 61.408 36, 58.996 36.146, 58.179 37.750" stroke="none" fill="#000000" fill-rule="evenodd"/>
</svg>